<?xml version="1.0" encoding="UTF-8"?>
<!DOCTYPE svg PUBLIC "-//W3C//DTD SVG 1.1//EN" "http://www.w3.org/Graphics/SVG/1.1/DTD/svg11.dtd">
<svg xmlns="http://www.w3.org/2000/svg" version="1.1" width="200px" height="200px" style="shape-rendering:geometricPrecision; text-rendering:geometricPrecision; image-rendering:optimizeQuality; fill-rule:evenodd; clip-rule:evenodd" xmlns:xlink="http://www.w3.org/1999/xlink">
<g><path style="opacity:0.934" fill="#fe0000" d="M 39.5,32.5 C 42.1667,32.5 44.8333,32.5 47.5,32.5C 47.5,36.8333 47.5,41.1667 47.5,45.5C 42.9774,45.345 39.8107,47.345 38,51.5C 36.7371,62.0945 36.0705,72.7611 36,83.5C 33.9381,91.0662 29.4381,96.7329 22.5,100.5C 30.1752,103.672 34.6752,109.339 36,117.5C 36.3333,126.833 36.6667,136.167 37,145.5C 38.2973,150.63 41.4639,153.963 46.5,155.5C 47.8333,159.833 47.8333,164.167 46.5,168.5C 35.8935,168.98 27.0602,165.313 20,157.5C 18.2503,154.754 17.2503,151.754 17,148.5C 16.6667,138.167 16.3333,127.833 16,117.5C 13.9648,111.298 9.79811,107.298 3.5,105.5C 2.34305,102.216 2.17638,98.8823 3,95.5C 8.41761,93.8013 12.4176,90.4679 15,85.5C 16.24,74.5576 16.9067,63.5576 17,52.5C 19.9873,40.6757 27.4873,34.0091 39.5,32.5 Z"/></g>
<g><path style="opacity:0.936" fill="#fe0000" d="M 150.5,32.5 C 160.919,31.8041 169.752,35.1374 177,42.5C 178.927,45.9481 180.261,49.6148 181,53.5C 181.333,63.1667 181.667,72.8333 182,82.5C 183.667,89.5 188,93.8333 195,95.5C 195.824,98.8823 195.657,102.216 194.5,105.5C 188.202,107.298 184.035,111.298 182,117.5C 181.667,127.833 181.333,138.167 181,148.5C 179.474,157.03 174.641,162.863 166.5,166C 161.507,166.965 156.507,167.798 151.5,168.5C 150.167,164.167 150.167,159.833 151.5,155.5C 156.985,153.848 160.152,150.181 161,144.5C 161.097,133.775 161.763,123.109 163,112.5C 165.695,106.971 169.862,102.971 175.5,100.5C 168.562,96.7329 164.062,91.0662 162,83.5C 161.907,72.4424 161.24,61.4424 160,50.5C 157.715,47.1078 154.548,45.4411 150.5,45.5C 150.5,41.1667 150.5,36.8333 150.5,32.5 Z"/></g>
<g><path style="opacity:0.987" fill="#00a1ff" d="M 93.5,54.5 C 96.8333,54.5 100.167,54.5 103.5,54.5C 103.5,71.1667 103.5,87.8333 103.5,104.5C 120.167,104.5 136.833,104.5 153.5,104.5C 152.543,130.96 139.21,147.46 113.5,154C 87.5714,157.455 68.7381,147.621 57,124.5C 48.2322,98.1398 55.0656,76.9731 77.5,61C 82.7441,58.315 88.0775,56.1484 93.5,54.5 Z"/></g>
</svg>
